<mxfile host="Electron" agent="Mozilla/5.0 (Windows NT 10.0; Win64; x64) AppleWebKit/537.36 (KHTML, like Gecko) draw.io/24.7.17 Chrome/128.0.6613.36 Electron/32.0.1 Safari/537.36" version="24.7.17">
  <diagram name="Page-1" id="rT79rEQE8sqWSyjUFxjz">
    <mxGraphModel dx="1548" dy="902" grid="1" gridSize="10" guides="1" tooltips="1" connect="1" arrows="1" fold="1" page="1" pageScale="1" pageWidth="850" pageHeight="1100" math="0" shadow="0">
      <root>
        <mxCell id="0" />
        <mxCell id="1" parent="0" />
        <mxCell id="XSL5e-MIfeSr7frRQ4w9-1" value="Users" style="swimlane;fontStyle=0;childLayout=stackLayout;horizontal=1;startSize=30;horizontalStack=0;resizeParent=1;resizeParentMax=0;resizeLast=0;collapsible=1;marginBottom=0;whiteSpace=wrap;html=1;" vertex="1" parent="1">
          <mxGeometry x="170" y="100" width="140" height="120" as="geometry" />
        </mxCell>
        <mxCell id="XSL5e-MIfeSr7frRQ4w9-2" value="id (PK)&amp;nbsp; &amp;nbsp; &amp;nbsp; &amp;nbsp; &amp;nbsp; &amp;nbsp;&lt;span class=&quot;hljs-operator&quot;&gt;&lt;/span&gt;" style="text;strokeColor=none;fillColor=none;align=left;verticalAlign=middle;spacingLeft=4;spacingRight=4;overflow=hidden;points=[[0,0.5],[1,0.5]];portConstraint=eastwest;rotatable=0;whiteSpace=wrap;html=1;" vertex="1" parent="XSL5e-MIfeSr7frRQ4w9-1">
          <mxGeometry y="30" width="140" height="30" as="geometry" />
        </mxCell>
        <mxCell id="XSL5e-MIfeSr7frRQ4w9-3" value="username&amp;nbsp; &amp;nbsp; &amp;nbsp; &amp;nbsp; &amp;nbsp;&amp;nbsp;&lt;span class=&quot;hljs-operator&quot;&gt;&lt;/span&gt;" style="text;strokeColor=none;fillColor=none;align=left;verticalAlign=middle;spacingLeft=4;spacingRight=4;overflow=hidden;points=[[0,0.5],[1,0.5]];portConstraint=eastwest;rotatable=0;whiteSpace=wrap;html=1;" vertex="1" parent="XSL5e-MIfeSr7frRQ4w9-1">
          <mxGeometry y="60" width="140" height="30" as="geometry" />
        </mxCell>
        <mxCell id="XSL5e-MIfeSr7frRQ4w9-4" value="password&amp;nbsp; &amp;nbsp; &amp;nbsp; &amp;nbsp; &amp;nbsp;&amp;nbsp;&lt;span class=&quot;hljs-operator&quot;&gt;&lt;/span&gt;" style="text;strokeColor=none;fillColor=none;align=left;verticalAlign=middle;spacingLeft=4;spacingRight=4;overflow=hidden;points=[[0,0.5],[1,0.5]];portConstraint=eastwest;rotatable=0;whiteSpace=wrap;html=1;" vertex="1" parent="XSL5e-MIfeSr7frRQ4w9-1">
          <mxGeometry y="90" width="140" height="30" as="geometry" />
        </mxCell>
        <mxCell id="XSL5e-MIfeSr7frRQ4w9-5" value="Books&amp;nbsp; &amp;nbsp; &amp;nbsp;&amp;nbsp;&lt;span class=&quot;hljs-operator&quot;&gt;&lt;/span&gt;" style="swimlane;fontStyle=0;childLayout=stackLayout;horizontal=1;startSize=30;horizontalStack=0;resizeParent=1;resizeParentMax=0;resizeLast=0;collapsible=1;marginBottom=0;whiteSpace=wrap;html=1;" vertex="1" parent="1">
          <mxGeometry x="570" y="60" width="140" height="210" as="geometry">
            <mxRectangle x="410" y="160" width="90" height="30" as="alternateBounds" />
          </mxGeometry>
        </mxCell>
        <mxCell id="XSL5e-MIfeSr7frRQ4w9-9" value="id (PK)&amp;nbsp; &amp;nbsp; &amp;nbsp; &amp;nbsp; &amp;nbsp;" style="text;strokeColor=none;fillColor=none;align=left;verticalAlign=middle;spacingLeft=4;spacingRight=4;overflow=hidden;points=[[0,0.5],[1,0.5]];portConstraint=eastwest;rotatable=0;whiteSpace=wrap;html=1;" vertex="1" parent="XSL5e-MIfeSr7frRQ4w9-5">
          <mxGeometry y="30" width="140" height="30" as="geometry" />
        </mxCell>
        <mxCell id="XSL5e-MIfeSr7frRQ4w9-7" value="title&amp;nbsp; &amp;nbsp; &amp;nbsp; &amp;nbsp; &amp;nbsp; &amp;nbsp;&lt;span class=&quot;hljs-operator&quot;&gt;&lt;/span&gt;" style="text;strokeColor=none;fillColor=none;align=left;verticalAlign=middle;spacingLeft=4;spacingRight=4;overflow=hidden;points=[[0,0.5],[1,0.5]];portConstraint=eastwest;rotatable=0;whiteSpace=wrap;html=1;" vertex="1" parent="XSL5e-MIfeSr7frRQ4w9-5">
          <mxGeometry y="60" width="140" height="30" as="geometry" />
        </mxCell>
        <mxCell id="XSL5e-MIfeSr7frRQ4w9-11" value="author&amp;nbsp; &amp;nbsp; &amp;nbsp; &amp;nbsp; &amp;nbsp;&amp;nbsp;&lt;span class=&quot;hljs-operator&quot;&gt;&lt;/span&gt;" style="text;strokeColor=none;fillColor=none;align=left;verticalAlign=middle;spacingLeft=4;spacingRight=4;overflow=hidden;points=[[0,0.5],[1,0.5]];portConstraint=eastwest;rotatable=0;whiteSpace=wrap;html=1;" vertex="1" parent="XSL5e-MIfeSr7frRQ4w9-5">
          <mxGeometry y="90" width="140" height="30" as="geometry" />
        </mxCell>
        <mxCell id="XSL5e-MIfeSr7frRQ4w9-13" value="published_date&amp;nbsp;&amp;nbsp;" style="text;strokeColor=none;fillColor=none;align=left;verticalAlign=middle;spacingLeft=4;spacingRight=4;overflow=hidden;points=[[0,0.5],[1,0.5]];portConstraint=eastwest;rotatable=0;whiteSpace=wrap;html=1;" vertex="1" parent="XSL5e-MIfeSr7frRQ4w9-5">
          <mxGeometry y="120" width="140" height="30" as="geometry" />
        </mxCell>
        <mxCell id="XSL5e-MIfeSr7frRQ4w9-17" value="&lt;code&gt;is_public&lt;/code&gt;" style="text;strokeColor=none;fillColor=none;align=left;verticalAlign=middle;spacingLeft=4;spacingRight=4;overflow=hidden;points=[[0,0.5],[1,0.5]];portConstraint=eastwest;rotatable=0;whiteSpace=wrap;html=1;" vertex="1" parent="XSL5e-MIfeSr7frRQ4w9-5">
          <mxGeometry y="150" width="140" height="30" as="geometry" />
        </mxCell>
        <mxCell id="XSL5e-MIfeSr7frRQ4w9-12" value="user_id (FK)&amp;nbsp; &amp;nbsp;&amp;nbsp;&lt;span class=&quot;hljs-operator&quot;&gt;&lt;/span&gt;" style="text;strokeColor=none;fillColor=none;align=left;verticalAlign=middle;spacingLeft=4;spacingRight=4;overflow=hidden;points=[[0,0.5],[1,0.5]];portConstraint=eastwest;rotatable=0;whiteSpace=wrap;html=1;" vertex="1" parent="XSL5e-MIfeSr7frRQ4w9-5">
          <mxGeometry y="180" width="140" height="30" as="geometry" />
        </mxCell>
        <mxCell id="XSL5e-MIfeSr7frRQ4w9-15" style="edgeStyle=orthogonalEdgeStyle;rounded=0;orthogonalLoop=1;jettySize=auto;html=1;entryX=1.009;entryY=0.287;entryDx=0;entryDy=0;entryPerimeter=0;" edge="1" parent="1" source="XSL5e-MIfeSr7frRQ4w9-11" target="XSL5e-MIfeSr7frRQ4w9-3">
          <mxGeometry relative="1" as="geometry" />
        </mxCell>
        <mxCell id="XSL5e-MIfeSr7frRQ4w9-16" value="Relationship: &lt;span class=&quot;hljs-keyword&quot;&gt;One&lt;/span&gt;&lt;span class=&quot;hljs-operator&quot;&gt;-&lt;/span&gt;&lt;span class=&quot;hljs-keyword&quot;&gt;to&lt;/span&gt;&lt;span class=&quot;hljs-operator&quot;&gt;-&lt;/span&gt;Many&#xa;(&lt;span class=&quot;hljs-keyword&quot;&gt;Each&lt;/span&gt; &lt;span class=&quot;hljs-keyword&quot;&gt;user&lt;/span&gt; can have many books)" style="text;whiteSpace=wrap;html=1;" vertex="1" parent="1">
          <mxGeometry x="330" y="190" width="220" height="50" as="geometry" />
        </mxCell>
        <mxCell id="XSL5e-MIfeSr7frRQ4w9-19" value="" style="shape=image;verticalLabelPosition=bottom;labelBackgroundColor=default;verticalAlign=top;aspect=fixed;imageAspect=0;image=data:image/png,iVBORw0KGgoAAAANSUhEUgAAAYkAAADACAIAAAB+nwj6AAAXIUlEQVR4Ae1d7ZXcqBJ9AXgi2cAciQOYH47AGcz/jaHTmI3C71QhoKoACSSkFuLO8dkW1Pct6o7Ua3f/7wM/QAAIAIH7IfC/+6WEjIAAEAACH+AmHAIgAATuiAC46Y5dQU5AAAiAm3AGgAAQuCMC4KY7dgU5AQEgAG7CGQACQOCOCICb7tgV5AQEgAC4CWcACACBOyIAbrpjV5ATEAAC4CacASAABO6IALjpjl1BTkAACICbcAaAABC4IwLgpjt2BTkBASAAbsIZAAJA4I4IgJvu2BXkBASAALgJZwAIAIE7IgBuumNXkBMQAALgponOwM+v77/+5/vrZ4/KP19//3Zy1SMd+OiCAB+U12cXX/udtHITnUWdNE7nfvRPsJT8s/CQ7tfHx0fHlh1yteRquI1cyh8ptrK/9jSegOgdXNquSkw282tnmnaLzSR2KICbdoB2Z5OaY3WIUHTxR1xRqq+vr29z46Vdcj3m1+EHbTaNp056vJUpmCm6GgCGMPkFtQZCu8Wat70ycNNe5G5qV3Os9PQfKuSAq2XelpeYhXWZqSixidbPvEoKZlAq2SkD4AZK7RYbDneJu3MTU3q4JddsLWVS4pGP8krUd5X8bKOaY2Wnf0Ekwp8+KimZuI1Rrjh2apsH3Dc9uQlSLsk22UhM8hEetBvACjUx1nFMVH/8bPl+hHF0F1788cFABmn0toQT9sKmbMbJqUzESSGhcFhx39uXmzi2LsODqUWZFUG0mKaH0XvB6xYCGtm8dg7fn1/fsXHsRB9V3xvjMbpim4KWMaIlqS8RxCVJoktnxo5jbsbY6Tz9vwYiKpdgWuBe651nBA2gw+vzFXss/QUOWYxMB4pmC/nkQiV9tV3OdLAvN5UDkkTlLDe4dgGTwSKTNrZKCDB24VehIHxhUG6TV9IdWNFfRPTiqcb7WH2lAKHj2n+6ipqLT2W9GuchwkzBDLkaKQGOmjXdzCIiAvfEgmS5WJZyhA8TJ6kg2TAGH83fAZUmqdLhongydCVxX46NP5ws1QZJotioQ6AGS9Wy4JZ21U/sSGxf3HN20chKgt/chclSJRRdcjb+kEg3ZJ7blzqPus4UvIaZJhIDtgCGJbLnC6iJhY5fMvP3aOzRnAfT1SWoURKpfXTnpsV5SMQfoKRYlcW6VKlisYFADZbqWDt/3DHfrdK9edLW8ABmzDdyDM8MciwC2WSys/6oyJislT5wnRYs+mzAFxKHRLIhtsXdkMA9sbCyvFkEnlOi7oYuCQ9Rbf1qzzNdiEeuqQy1EePJdOR11FiuEigSDWzUIlCDZdoMa2XXMrqyDgu2EEdWWtjrjPfgJ9CdNZJrclA4dFLtOddJwYTXgrZF067db4L0DkVAzkCJtXUh10LNmlm8pap0YfUK61ZuMoVyxMIp0dnwqnB2tWYhU2xXIVCDpTwzi1O55Vrlj76NqgNIO7ouWSkvpGhmhb26gyRdKrO4IO3CqYtKT7rSBRugJWCMo+0C6xvAzb2xc+lBZS/BgFcBbiXTZgZxpbm8eR/cGN3cspmb1DOlAYGTEffpoToXuSg2ReTyxF4lAmtYLidJdEhwhBB+f/2klW9fsW/2nVD/rLZxAMl3osJBeDcrXqoXSfoqfJaV+IypZlpg0ROwmN4t5Sr7gJjcfX3SyjsWDtPfN2UzKUntFnryjcscAt2cPdykPWAFBIAAEOiPALipP6bwCASAwHEEwE3HMYQHIAAE+iMAbuqPKTwCASBwHAFw03EM4QEIAIH+CICb+mMKj0AACBxHANx0HEN4AAJAoD8C4Kb+mMIjEAACxxEANx3HEB6AABDojwC4qT+m8AgEgMBxBMBNxzGEByAABPojAG7qjyk8AgEgcBwBcNNxDOEBCACB/giAm/pjCo9AAAgcRwDcdBxDeAACQKA/Ap25SX4GTP9k4fFNCKCtbwL+jWHpI5zCJz29JQ9w01tgHywouGmwhnVIF9zUAUS4OB0BcNPpEN8uALjpdi1BQhkEwE0ZUB6+BW56eIMfUh646SGNbCgD3NQAFlTfhgC46W3Qvy0wuOlt0CNwAwLgpgawHqIKbnpIIx9eBrjp4Q3OlAduyoCCrdshAG66XUtOTwjcdDrECNABAXBTBxAHcwFuGqxhk6YLbpqv8eCm+Xo+YsXgphG7dixncNMx/GB9DQLgpmtwvlMUcNOduoFcSgiAm0rIPHcf3PTc3j6pMnDTk7pZVwu4qQ4naL0XAXDTe/F/R3Rw0ztQR8xWBMBNrYiNr/84bhq/JagACACBWyDQ+bPlblETkgACQGB8BMBN4/cQFQCBJyIAbnpiV1ETEBgfAXDT+D1EBUDgiQiAm57YVdQEBMZHANw0fg9RARB4IgLgpid2FTUBgfERADeN30NUAASeiAC46YldRU1AYHwEwE3j9xAVAIEnItCZm/APr554SD7Q1ke2dbWox/17Ohzi1X6PKkRbR+3c/rzBTbXY3Xc6KDP/8/31s7agbb3F8etzWzVofL7+ds1hcXxf9EPluOiMALipDlDCSc6c5APmBTvAZOB/jEyKok+56w3p1RivpGtzXFGtE+3hJn76UlDVxdrQAjdtAPRAMZ3n+tN/BgADvN/EM6pRMltMLIFntJBl3ppFQfGDJtmLArh7e0J2wnXwd/nFCYkQbreo7XIw5w24dw76IXZ7btJMsxSebMZ5TETuVoIpKJVlgNzbk5hCxum1W62pbOoTcOCma5v47mh756Bf3nfnpvxUJCQTNsKFgCj4YOHWjO3tSWHAadv/mNCcjpe5V3cXJwUZm++vn0IjufH74PvBthtyl2XOFeNI4UwiAl9cPhGBvXPQD4ubcxPPYDoyyXYghnAhIBLabgZX53ZvTzKROXCYaV6FR3gt47ySOksu4/tgeTtHTiGwgGLl0qUX8lOaJGt0p+yxGA8BOlrJiby0jJtzUwEgnqMAnJsqt8yM88eH9kKr5Se4EJhrZSHYuEwjJzsybSM0SxcrsyldkFJGhW1L++tFOCRTFqL9dHfdF6RjI0AnKDcf11V1DTf9+Pf3j//En1+iwD+/lOjPP0JmJ9GL3Ax5hpEY5mYy72XxkYzc3p4kkSmA8S62OHwQJ8ZcaWaXzcSRyagUTNkyQhZCe0z9K3m07+qLvL0aXh+OAJ0DcdDeUO013LS7sAJAdkKj/5ykNL/ursM2oBAyhihcJVEyAy23SF/85I5B4jJ9JymjwvnRfs5lIfllm9GzhLq8f1Uks3WXkA6KwL4T1LPYm3NTjmrW3+tNLUrjuzwR2RHe25M0TLIjcqPLzWlPHFRzU5V7c44oWoHQ9rgz3rEcDAE6Du2/3XoWeXNuEn8BQFYthlxuu2uesYCqnO/Pl6ID9qJ2yMHenshAS1KcSQigwq1W4GvKuLR2GZV17va+9StnWj6KFDXUoS2xeigCdCTCFL2lxrtzU/4vOtsJtdC5UXNPTGqm2DA+SeWwb+2JjOU9R78qYNz2/OEN3KuXr7i0lZOqqpCgyG5ajMR6U5+iJlGEA1w+DwE6FP5Avqe623NT+hjzHqA6R03pgHa6HIbU9eHcwU2HIRzOAbipqmXu5uO9JF6VaLUSV6TuRNKdamdSsZMb6RLvhRs05liCm2r7TDOnZrnW8LZ6fJ8kn+l6cC8+h+C2/R4tscdx02gNQL5AAAjcFIHO7zfdtEqkBQSAwGgIgJtG6xjyBQJzIABumqPPqBIIjIYAuGm0jiFfIDAHAuCmOfqMKoHAaAiAm0brGPIFAnMgAG6ao8+oEgiMhgC4abSOIV8gMAcC4KY5+owqgcBoCICbRusY8gUCcyAAbpqjz6gSCIyGQGduet4/yR2toafki7aeAuutnT7u3/riEN/6vO1NDm3di9y4duCmcXs3U+ancVO9Y9Ls8tF7om80fkN88M5JH30joEgvwU0pJti5HwL1FNKUews3TM1N+U+mbsK6WRnc1AwZDN6AwBnc1Eg2jepVILVwY5XDM5WuThbcdGY34bsXAv25qZlqmg0qar963CtSWlPpme62L3DTWi8guwsC3blpzSGz0PJhxfFziheLKDRvFEVB7j0kGrTlR9ipAfUOYsgS+sos810bIljy9RRSJiMt5fFX5LhERZ4+EU5RWnnBnleXSdkbycvSPRFbbfB3CFoRm1HfT06v2stDxhMTx/Lz5ceDTeKos56XmS+9Ill04d6riWP28+v19dMVEhWd9+Bvvc5oxnq6GL1SjrQosyJSWnIwMRY/ZCMqU953LDiFENI4oAwqATGWvZbgpl5IPtlP55kofj8pzUNhIPQoq+/gS7KTG2xXmOeFADhqQSXX1cXMi3RmRuiVcl/KSqp++m2a2mnwUvYeVBovOFCO8GR2jT47qYObOgH5aDd0gDPD++Pf3z/+E39+CRD+/FKiP/8IWWHwCl/i7AytjZhSukx/Vm9AnM9o6ClCJFm+FKFJyWTGS05HO437MlePqnFSCm5C++jRo/fHDmJ9mXxECKenTPd/v7Xwe/AS3HQQwCnMaXLM0T1UNw2Dnlx2tzagViamVFymWa0JFxm9tJRnXNrMXA7slCjB45ZX8wmvS71W8YYzKDRfcOCQpDCnAjI9EhpnX4Kbzkb4Cf7pAPsZ61FPaRLN1MtQ1kSoWpE0s3c1ShZ8sIfqSQxmztlaeKkqr1UatFhzEpVJq2cfKKUSA5EM3BSxx9U9Eeg9E8VR5BEVI2HeCxezoiadZ6w0tEaYfS/cPcJUDqPkEZdwyVBqLvwjipO91ppSIq6rlIT+6iXDUsiGDEku8F71dY4Q903n4PosrzQUpdHfVymPWd6lGxr3FkocDjuXpCXtpZV4knLZsbHzKI20j0VJOi3VJvy9PtUUCwnHiwWwr6KYBUbZRtfpWmnbetsXaWwk1BayWRvc1AzZhAY0OTUz2wJNzTS2+Hu67jab9EUA3NQXT3g7B4EzuGn9GeecOob1ykTe+7fDOhrgpnV8IL0HAudw0/IW8LUjdw9AG7PA5xA0AgZ1IAAEgMBpCHR+v+m0POEYCACBuRAAN83Vb1QLBEZBANw0SqeQJxCYCwFw01z9RrVAYBQEwE2jdAp5AoG5EAA3zdVvVAsERkEA3DRKp5AnEJgLAXDTXP1GtUBgFATATaN0CnkCgbkQADfN1W9UCwRGQQDcNEqnkCcQmAuBztx02j8Knasrd6sWbb1bR87PB59DcD7GiHAcAXDTcQxH8wBuGq1jc+Z7Gjd1ckxz5H/yn9XoNNY/joV01jXe1X18RkoH5DudtQ6ZwEVHBE5qa28yoDQLnyM7Nje5z1e/ljcJsTzPdzxYq67wftMqPBAyAmdw0wqR7EX9oMveVLm3jLzd1dmBm/J9wO69EKjgpsajfJBG8vAcdHr19OeLKO9em19jQ8tp75bgvmk3dBMZbnATHeO2B4Csw3T2mGziowwv/ftKcTs0guX2OcQl56ysbPmqI+8y+X6W4FldmDyTqDKihUXKZDbkhCqK8tr6VGodF5SJzLCj60pX4KZKoKZW85OTAYEns/Ut5GScnWMeTDEPWu3zJcbVqrIDra+Tzcl4Lzoln3GlzeXK6GnPeiXNzJfyaUVeCYY3MRY/pFWToQq7c0EZiF7s9HLEDNx0BL1ZbAsz4QZqx7CUzj07DAOhVwbr3PCuGWRk1oVdm4hhafS0ZyMMRpkvoyRVXyw7EUhqp8FL2XtQ6XUhs+vls80PuKkNrzm1aVLE4DAIdHbjbCW4/Pn147/f8c+ff4RGYfDMV28nQdlMPH8lKZX95r7UO/FfO/hGz0SNWXrecZXH/VwJxokAS12a0B6x6FF1ybUoCFU+azIOSQrKQiVyxQLcdAXKo8egyVGn3hXkxi0j2Kp35dwHkYnpYsVhIT0bmXWiisoilZkA7sbGulQ+loUJnXomPVLiH+8xr+b9r0u9lvoK4bB5zkVoxDnuK7yCmypAml4lGeOICA9VwhJRnr1am8RlJkhF0owhBJ5SP/Y+xprbVGZ3eG1detfy1aRi/ZRUjZlUy93WablbUaiaDHO2rXtLH1rNOuqDmzqC+VhXGzNBx7jtAWBrnl9fhpr0G8kuYDKma14zMt5aRp2vK/8/nXTl7SSNxmMgNde/x1hrRg/qqkpJWRxYgJsOgAfTyxCgodj4fd14lHnMCi5ZlsZz2+5B6fUpU5ISJ4/Pe2sy8eRF92jS5Tq0wunrUz1oCQlnYjirKGaBUbY5EMQFyKxqh3VjQztEtC5w32QRwTpFgCan91TUTGOaybw71zJT5n8rXg49uOlyyAcMeAY3rT/jDAjSmSkzkff+7bCeMO6b1vGB9B4InMNNy/8Bv3bk7gFoYxb4HIJGwKAOBIAAEDgNgc7PdKflCcdAAAjMhQC4aa5+o1ogMAoC4KZROoU8gcBcCICb5uo3qgUCoyAAbhqlU8gTCMyFALhprn6jWiAwCgLgplE6hTyBwFwIgJvm6jeqBQKjIABuGqVTyBMIzIUAuGmufqNaIDAKAuCmUTqFPIHAXAh05qbT/lHoXF25W7Vo6906cn4++ByC8zFGhOMIgJuOYziaB3BTbceGnA5KWn3odW21q3rkdeMTElftdwiHRH9HnTCJCICbIhZrV4ST+pgfnnr/8av0ugxrng2W0SIvuZ+6QU9yWEvYyfLZbNttaXAhdVlvuaqTLwDWKUPrEQjQIbvyjKWgDfB+09aEK3kWUdJQMGe1UnDUDtkoflTS7EJlltXYu3me52xGFK6x9qwfbI6DwJ4Z6Vvd9dzUWPP2FCqNLIMkIZONClCzntftVGbrqs3SM30nyVAwcFMCy6M39sxIX0Cu5Saqt+1OsWIq1JRm9ROYk401UF3S9mFQjipn4BXEDZrKzH+bojCUdmb7++unkAqfMVPKS1hFQf8rSuWiUP2Th8ddCDTNyK4IW0bXcZMbtcYTzkbZyYyFKZ04RfGKWEHH3YN7iQpoPz4x8soHE5mpfc5d+5MrNotO2TSHAQly+xGaXlcCy14u4efmCFx3ukpAXMNNbtr8yJZyyezXACQYQH4/Ko80h0wnq8atzYZs0gpUcDYReouQXwyLJDmJjcUsJCA8hj26sHpK2HUhkuvqF87ui8CeGelbzQXcREWu/IL/8+vHf7/jnz//iAKrpk8reUg/X99fX+5+iRT0/YVXEqE2L8km5aaMp7jFmfGzXmJISumPy1IX5L4pLHGQ5aYYMI26JjPZaLDwdSibZ+OJCvEYv6u6C7jJT1FmsjerrgFIj/Ji8fkiOnIPc6Sgx63Grc2NbFKGyHiKW0tmjhXSDFJvLqYuaJ2bSj5s9sfWlNE1kY7lCet+CMRj3M9nm6druIlychPaeMLtmOaK0zpujL6Ymnis+fbpNG7SwSk9wWFRSJtquqMoLcnKhEelfN3poYwaO6cyxWI8BK47XSVsruMmyoBH1PBEKTO3b+d00f58hdsQM7k8Rt/hRslFtIO1B3fOJB1Q3o4lcTyfm0ze6Ql71hTriIM0o13SzCgWtqOffleUUSaDfgHg6XYI0PHyB/k9yV3LTVRjY808qJm5IDfuxwidIGyapUO5MQffmhhTk0Vp35DMohYbLu3EfZUxy3OTVfI5nvJKwQKip0SA07shQIczHtV3ZHc9NzVXeekUNmf3HoOLMQE3vafN74wKbqpCnyfxzSRelehFSny/deXvNHDTRZ29URhwU20zMB0BKYLiSmLC3yEI0M908Thumql5qBUIAIETEej8ftOJmcI1EAACMyEAbpqp26gVCIyDALhpnF4hUyAwEwLgppm6jVqBwDgIgJvG6RUyBQIzIQBumqnbqBUIjIMAuGmcXiFTIDATAuCmmbqNWoHAOAiAm8bpFTIFAjMhAG6aqduoFQiMgwC4aZxeIVMgMBMC4KaZuo1agcA4CICbxukVMgUCMyEAbpqp26gVCIyDwP8BY9xYe31phvAAAAAASUVORK5CYII=;" vertex="1" parent="1">
          <mxGeometry x="220" y="300" width="409.37" height="200" as="geometry" />
        </mxCell>
        <mxCell id="XSL5e-MIfeSr7frRQ4w9-20" value="" style="shape=image;verticalLabelPosition=bottom;labelBackgroundColor=default;verticalAlign=top;aspect=fixed;imageAspect=0;image=data:image/png,iVBORw0KGgoAAAANSUhEUgAAAx4AAAD6CAIAAACgZQZgAAAgAElEQVR4Ae3dP7LbxvL28bsBZM6cOFEiVyl2FWPH3IDLxYwZqxQzcSLkDBR7DyfVIhhoE9wF7pX6qqvVA4LAEBz2DL+nfvVeEBjMn88Ag+eAR37/0/GDAAIIIIAAAgggsJLAf1aqh2oQQAABBBBAAAEEOqIVFwECCCCAAAIIILCaANFqNUoqQgABBBBAAAEEiFZcAwgggAACCCCAwGoCRKvVKKkIAQQQQAABBBAgWnENIIAAAggggAACqwkQrVajpCIEEEAAAQQQQIBoxTWAAAIIIIAAAgisJkC0Wo2SihBAAAEEEEAAAaIV1wACCCCAAAIIILCaANFqNUoqQgABBBBAAAEEiFZcAwgggAACCCCAwGoCRKvVKKkIAQQQQAABBBAgWnENIIAAAggggAACqwkQrVajpCIEEEAAAQQQQIBoxTWAAAIIIIAAAgisJkC0Wo2SihBAAAEEEEAAAaIV1wACCCCAAAIIILCawLJoNQzD29vbao1T0RWBvu93u92Vgy+6e7fb9X3/ooNn2Aj8EDgcDsfj8ccn/vebAIsD18FMgWKXCtFq5owULUa0SrmL3RJp0+xBII4A0SqdCxaH1IQ9owLFLhWi1aj/k3cSrdIJKHZLpE2zB4E4AkSrdC5YHFIT9owKFLtUbker0+k0jP2cz2fpuvS1//Fjv8nabrc/dn/738PhYEdrD7nveo7Hoz262Wz0xCqayxi4O0WH79DU4UU23JWgLHpJ6B7ZsCzuXD1Fv0HQc7lou65zV6C78NQKZ73GSq5Fzl8/amdecMPd4Gqid7rukQ1L5M7VU1gcFK2lFcBNt47Rzru9PO7fvh2tbBv8rZXVeNw2b61S22K/baRNsweBOAK8tUrngsUhNWHPqECxS4VoNer/5J1Eq3QCit0SadPsQSCOANEqnQsWh9SEPaMCxS4VotWo/5N3Eq3SCSh2S6RNsweBOAJEq3QuWBxSE/aMChS7VJZFq9G+shMBBBBAAAEEEEBABIhWXAkIIIAAAggggMBqAkSr1SipCAEEEEAAAQQQIFpxDSCAAAIIIIAAAqsJEK1Wo6QiBBBAAAEEEECAaMU1gAACCCCAAAIIrCZAtFqNkooQQAABBBBAAAGiFdcAAggggAACCCCwmgDRajVKKkIAAQQQQAABBIhWXAMIIIAAAggggMBqAkSr1SipCAEEEEAAAQQQIFpxDSCAAAIIIIAAAqsJEK1Wo6QiBBBAAAEEEECAaMU1gAACCCCAAAIIrCZAtFqNkooQQAABBBBAAAGiFdcAAggggAACCCCwmsDcaHX+/rNas1R0ReDt7e1yuVw5+KK7N5tN3/ebzeZFx8+wEbglwD0yKnT4/jN6iJ0IWIG+77fbrd1z5zbR6k7AlU8nWqWgPDZSE/YgYAW4R6yGbhOtlIKNaQGi1bRP9UeJVukUtvrY2O12/Y+f3W6XDjxjT9/3a1WV0TqnPEug1XvkTs9Xi1bb7ZYX/HnXTOPR6t3Hf999/NfSvPv47/tPX+yetreJVun8Vv3YOB6PP+LT//83fe28Yh66pyqJesfj0U6BLNZ2CPabWbtfttPR2dp021brWtQybMwXqPoemT/MpSWfHq3sr0993y+61DNyUsYpS0lbLU+0anVm/z8uolU6wVU/No7H4+FwSAdl99yTh2w9XdfdU9XxeJQngQ1PbrGWAi4/7Xa7Rc8M18pms7lJ5IbJRydQ9T3ixrLixwjRyt4ah8Nh/lsld+vNYck4ZU61r1CGaNX4LN8ZrS6Xy9vbW0CjOQnjWrerfmzMGfg9ecihZVelyBKwtNp0sU5HtDRapTVoc2zkCej05Z2+dAbzWsk4K738FlUSLVp1XXf8/jNnFBljzzhlTk9eocyrR6v3n758+PxV/s99Ufjrn3/rIfutouzvuk7PtUejXTTZ0Wq/3w/DEPZfF8rSb3+Bmy9/52NjfkOPKDknRozmIVkl9Rs31zfd3/e9feVjq9IvI9y5ox/14aobUixdrA+Hg5tHd8po/XbnzaeL/RbVvkKT2Gdl5Ohol+zrAXuK5ZL98sATUnvU9jn49j33iGhb51CDlTc97kXpzB4GjFbula291PWvJGXI9h53Xyba67nve9XQ61nP1TqlzGhzckiXCznXXg9ydcl+d+9r07VvvHS0mvi7q9/++ufD5686u+8/fdH8pJHrt7/+6brul9//+PD5669//q2FQ23kRavT6TQMw/l8DjWWtDPpTZuWSffc89hIayu8Jy9aue/IXBaZqFOjlSyU8x9I+rLKactibdfZtPWl0UofDKPd0yF0Xeda1weDTKImKilma7OdFAqdd3tIeyJPIBm7rUfPCr7hZm1+b+WWnF/+KSVlBjNSb8BoZa/Vw+Ggd5bdL8iyRwuo/MTioNeznOVqmGjOldS20ntQbzpbpoHtl45WNjC5uXRpSd9UdV0n2zZLffj8VWKWqyTCx4xodT6fh2E4nU4R+n+zDxm/g2Y/Nm52pkABTQPyDLO/YmrrNkzoTrvhwsFEeTm06E86uq5zwrZ+t+aO1rw0WsnQFMQ+MtOqNPOlX6ZYFhuYXEJyi6aMSPog2zZL2bHbKQi+7WZwTm9l7BZ/zlnPKiMDXPrKJHi0cpju2nO3niusH+1dkJ5ibx89RTZsc7YSV8zVkHGluQpjfnSrxP2djPXftZr+F4L6/sl9FSgvovTbQN345fc/NFrJ9v1ej65habS6XC7DMOz3+9GOyQ2jzzD7clhuQj1kV9iJQ/KH0nqWCwouRqS/b0knpVe2xdHO686qb2b7yNcRuQ27xumh9EsBPaTTmhrq1Ni4oCde23ALq/3F1F0Mo8+2NA9dayjdL01rtemo7TeeE5h2CLY/cvEoi26M/lqfdq+WPUvvEeGyC4IdqZt0d5mpoWzYEydWAGlRz7VNTzdn65fTry0stqRsh41WMoT04kxZRgeb3iYyXpG0p1iB6eZ0auzp6YIvxRYtL+m8BNzz0tFK5sMGKbvHvpeyMyeBrNVo9b8Xtry1stMdbXsiDWhX02jlXg7Z3KBn6QNJc4n+C0F3up5ybcM9Ee0DLF2s00pslEmP3twjTchibVNdeuI0pi6O9vdseZxcexLMGV3ajYB7lkYr/aLHxaaAQ5MuyQDtpT6nqzZYzCm/epn01tB7WUZk/d06cO3idHe3VqhzarOR3jI3m5Ox61Kgt4zr1epEQSrU1WOt/oR7a+XeSL3/9GX0yzv3J1MT3/E1H626rqvlb63kvrV3/pzrOOOxMafaMmV0aZtoLl283Fl29XT1uPVXqxJqV3j0o/DqSipltB5X/2gN6fNjtNi1ndKEdGBipPKFoH0UuQrlOSrDsYd0LHanbM8ZXXpWwD3Z94jE6IAjsl2SaZqYelvYbgeMVvoWNr323IWaFpChTSwO6Sla58QhK5Y24ZpLC7exp/Fo5QKT/HH66AsnF5ik5OiLK1cy+HWw9AtBHQ7/QlApQm3MWZh0+dOe25c3kjbcd69a0mURW9XMp6asuVqhbOgfzqcrsivZdd3SaOXePWhbUrP7x1C2uWlM6eput3PPYCFy2VGqnTM624Gw29nRSv915NJfeIpRyEua0em72Ydo0creku5XGjlkvxCUAnaPjHdicXDXs9DJWTebs5h2GdHbyhZob7vxaKX/gk//XspOoe6UDRe5JF1pGfcvBF1hW22o7exoJaPgv2sVajanX7TIwidLqv6/2n/dczweZXWTQ7JE6lEXueyaqCWnn5p2pdbWJY5sNhu3WGsB2bDdkO05j0DtmJziklD65x3a/+loNZESNJ66FqdH5wYb+aOQKtTSri4Nx0vrzy5/5wRFiFb2HnE5yV6W2+3WfpEtYjJ8qcH+QqJ1Ti8O9hT5FUhPdM25tcj103Zj4jef7FmOcGL70SqC8hP7cGe0emLPH9f0nY+Nx3WMmhEIIsA9MjoRT49Wo71iZ0ABolXASVmzS0SrVJPHRmrCHgSsAPeI1dBtopVSsDEtQLSa9qn+KNEqnUIeG6kJexCwAtwjVkO3iVZKwca0wNOi1XS3OIoAAggggAACCCDQdd3c//gCWAgggAACCCCAAAI3BYhWN4kogAACCCCAAAIIzBUgWs2VohwCCCCAAAIIIHBTgGh1k4gCCCCAAAIIIIDAXAGi1VwpyiGAAAIIIIAAAjcFiFY3iSiAAAIIIIAAAgjMFSBazZWiHAIIIIAAAgggcFOAaHWTiAIIIIAAAggggMBcAaLVXCnKIYAAAggggAACNwWIVjeJKIAAAggggAACCMwVIFrNlaIcAggggAACCCBwU4BodZOIAggggAACCCCAwFwBotVcKcohgAACCCCAAAI3BYhWN4kogAACCCCAAAIIzBUgWs2VohwCCCCAAAIIIHBTgGh1k4gCCCCAAAIIIIDAXAGi1VwpyiGAAAIIIIAAAjcF5kar8/l8uVxuVkeBOwV2u13f93dW0tjpm82m7/vtdtvYuBgOAosEWBxGufq+3+12o4fYiYAKFH6OEK1UPsQGq2c6DYVvibQD7EEgggCLw+gsEK1GWdjpBAo/R4hWzv/JH1k90wkofEukHWAPAhEEWBxGZ4FoNcrCTidQ+DlyI1oNV36k09vttjc/h8PBDsYc+bZpDx2PR3t0s9noUVk+9Kh909twcw5Eh29llOhFNtyVoCZ6STg0a+XO1VO6rmv4Knrl0TU8re461xvBXvAvsiboMN10q4k+g6pYAdwotPMyTB2UbOjYu65zl4S9EqoYeNd1xUbnQLRd+1Cwtmtt34hW2gx/a6UUD92Q6+ChTVRXeeHfNqrzocMvIsDiMDrRvLUaZWGnEyj8HCFaOf8nf2T1TCeg8C2RdoA9CEQQYHEYnQWi1SgLO51A4ecI0cr5P/kjq2c6AYVvibQD7EEgggCLw+gsEK1GWdjpBAo/R+ZGK9dLPiKAAAIIIIAAAgikAkSr1IQ9CCCAAAIIIIBApgDRKhOO0xBAAAEEEEAAgVSAaJWasAcBBBBAAAEEEMgUIFplwnEaAggggAACCCCQChCtUhP2IIAAAggggAACmQJEq0w4TkMAAQQQQAABBFIBolVqwh4EEEAAAQQQQCBTgGiVCcdpCCCAAAIIIIBAKkC0Sk3YgwACCCCAAAIIZAoQrTLhOA0BBBBAAAEEEEgFiFapCXsQQAABBBBAAIFMAaJVJhynIYAAAggggAACqQDRKjVhDwIIIIAAAgggkClAtMqE4zQEEEAAAQQQQCAVIFqlJuxBAAEEEEAAAQQyBYhWmXCc1qrAfr8fhmG/37c6QMaFwEMFhmE4nU4PbYLKEQguQLQKPkF0r7QA0aq0OO21JUC0ams+GU2OANEqR41zGhYgWjU8uQytgADRqgAyTQQXIFoFnyC6V1qAaFVanPbaEiBatTWfjCZHgGiVo8Y5DQsQrRqeXIZWQIBoVQCZJoILEK2CTxDdKy1AtCotTnttCRCt2ppPRpMjQLTKUeOchgWIVg1PLkMrIEC0KoBME8EFiFbBJ4julRYgWpUWp722BIhWbc0no8kRIFrlqHFOwwJEq4Ynl6EVECBaFUCmieACRKvgE0T3SgsQrUqL015bAkSrtuaT0eQIEK1y1DinYQGiVcOTy9AKCBCtCiDTRHABolXwCaJ7pQWIVqXFaa8tAaJVW/PJaHIEiFY5apzTsADRquHJZWgFBIhWBZBpIrgA0Sr4BNG90gJEq9LitNeWANGqrflkNDkCRKscNc5pWIBo1fDkMrQCAkSrAsg0EVyAaBV8guheaQGiVWlx2mtLgGjV1nwymhwBolWOGuc0LEC0anhyGVoBAaJVAWSaCC5AtAo+QXQPAQQQQAABBGoSIFrVNFv0FQEEEEAAAQSCCxCtgk8Q3UMAAQQQQACBmgSIVjXNFn1FAAEEEEAAgeACRKvgE0T3EEAAAQQQQKAmAaJVTbNFXxFAAAEEEEAguADRKvgE0T0EEEAAAQQQqEmAaFXTbNFXBBBAAAEEEAguQLQKPkF0DwEEEEAAAQRqEiBa1TRb9BUBBBBAAAEEggsQrYJPEN1DAAEEEEAAgZoEiFY1zRZ9RQABBBBAAIHgAkSr4BNE90oL8P89c2lx2mtLgP/vmduaT0aTI0C0ylHjnIYFiFYNTy5DKyBAtCqATBPBBYhWwSeI7pUWIFqVFqe9tgSIVm3NJ6PJESBa5ahxTsMCRKuGJ5ehFRAgWhVApongAkSr4BNE90oLEK1Ki9NeWwJEq7bmk9HkCBCtctQ4p2EBolXDk8vQCggQrQog00RwAaJV8Amie6UFiFalxWmvLQGiVVvzyWhyBIhWOWqc07AA0arhyWVoBQSIVgWQaSK4ANEq+ATRvdICRKvS4rTXlgDRqq35ZDQ5AkSrHDXOaViAaNXw5DK0AgJEqwLINBFcgGgVfILoXmkBolVpcdprS4Bo1dZ8MpocAaJVjhrnNCxAtGp4chlaAQGiVQFkmgguQLQKPkF0r7QA0aq0OO21JUC0ams+GU2OANEqR41zGhYgWjU8uQytgADRqgAyTQQXIFoFnyC6V1qAaFVanPbaEiBatTWfjCZHgGiVo8Y5DQsQrRqeXIZWQIBoVQCZJoILEK2CTxDdKy1AtCotTnttCRCt2ppPRpMjQLTKUeMcBBBAAAEEEEBgVIBoNcrCTgQQQAABBBBAIEeAaJWjxjkIIIAAAggggMCoANFqlIWdCCCAAAIIIIBAjgDRKkeNcxBAAAEEEEAAgVEBotUoCzsRQAABBBBAAIEcAaJVjhrnIIAAAggggAACowJEq1EWdiKAAAIIIIAAAjkCRKscNc5BAAEEEEAAAQRGBYhWoyzsRAABBBBAAAEEcgSIVjlqnIMAAggggAACCIwKEK1GWdiJAAIIIIAAAgjkCBCtctQ4BwEEEEAAAQQQGBUgWo2ysBMBBBBAAAEEEMgRIFrlqHEOAggggAACCCAwKkC0GmVhJwIIIIAAAgggkCNAtMpR4xwEEEAAAQQQQGBUgGg1ysLOhwicz+fL5fKQqqn0eQK73a7v++e1X1/Lfd/vdrv6+k2PywpsNpu+77fbbdlmaW0FAaLVCohUMVOAaDUTqq5iRKul80W0Wir2muWJVvXOO9Gq3rmrr+dEq/rmbEaPiVYzkH4qQrT6iYMPVwSIVldgKthNtKpgkmrv4nDlR8a13W5783M4HOx4zZFvm/bQ8Xi0RzebjR6Vh70etV++0JyyKFfXdRmY7hSt1k6EbeLFt92Fp1x6wXPRiomCyAWjULJhryJ3BdoLrwpMd0nowF3nVcCuY9aB7YACRKuAk9Jsl3hr1eTUypOgyaE9aFC8tXoQbGPV8taq3gklWtU7d/X1nGhV35zN6DHRagbST0WIVj9x8OGKANHqCkwFu4lWFUxSM10kWjUzlXYgRCurMWebaDVHiTJEq3qvAaJVvXNHzxFAAAEEEEAgnADRKtyU0CEEEEAAAQQQqFeAaFXv3NFzBBBAAAEEEAgnQLQKNyV0CAEEEEAAAQTqFSBa1Tt39BwBBBBAAAEEwgkQrcJNCR1CAAEEEEAAgXoFiFb1zh09RwABBBBAAIFwAkSrcFNChxBAAAEEEECgXgGiVb1zR88RQAABBBBAIJwA0SrclNAhBBBAAAEEEKhXgGhV79zRcwQQQAABBBAIJ0C0CjcldAgBBBBAAAEE6hUgWtU7d/QcAQQQQAABBMIJEK3CTQkdQgABBBBAAIF6BYhW9c4dPUcAAQQQQACBcAJEq3BTQocQQAABBBBAoF4BolW9c1dfz8/ff+rrNz2eFHh7e7tcLpNFOPiTwDAMp9Ppp118QGChAFfRQrCixYlWRblfvDGiVZMXANFq6bTyUFwqRvlUgKsoNYmzh2gVZy7a78nTo9V+v2c9Wv06I1otJX36RciNsHTKApZ/+lUU0CROl4hWceai/Z7kRavz+TwMw/l8XgR0uVzSU+55ovz6598fPn+V/3v/6cuizlwrLHX+8vsf1wpUsZ9otXSaFj0U5aIdzM/9Xybm3Qhylr2t5N68vz9LAZ9SPg/tcV1ddBU9rhvUPCpAtBplYedDBPKi1TAMb29vwzAs6tO60eq3v/758PmrZqBffv/j3cd/F/VntDDRapSl+Z2LHoruiS73wn6/v0fJ1TmzKjnL3omS94hWMwHXLbboKlq3aWq7KUC0uklEgdUEMqLV6XSSpXzpOrJutHr/6csqWcpREq0cyIt8XHQxpzFIftm4xyqtc05tp9NJbivJUqfTSV5YEq3m6K1eZtFVtHrrVDgtQLSa9uHomgIZ0UpP0Q3p0Pl8tv8qTV9r6S/W5vuTb5uy+svR/X5/uVykwNvb25wRvv/05dqXgB8+f3Wp693Hf23h95++pN8kvvv4r+7UDXvWL7//Mbr/w+ev+tXkr3/+LfX89tc/c0bxoDJ8IbgUVi/IOSemMcidLhe/XM/227qu6+Q3Ezlk7xdXp3yvZwuMdkyi1el0klYul4vcSnoT2ebsyy37C9Lofaf3Y5oapW9yljvX3uy28+IjhaW3rlpbp82Fl8vl7fuPNicOVlgP2QGOcj16p7sMHt0c9S8SIFot4qLwXQIuHs2pS5cPXZ3lrGvRSuuceGvl6rRrq57uNmyacYfku0K7U9KP7HExyxbruu7aWyu331YieUu+kXz/6ctvf/2TdsC18uiPRKulwnoFzjlxNAbpiZIS9OMwDBoy3FeHEl+kpK1TapjzDaNEq67rhmGQUNV1ncSRruv2+70NdpfvP9KcRi5pxXXsfD5r61JSb0k7Oumzi3F6ol0QJP1If2xaks7YlcE6yFjsn3XabRngoonTSXnQRqjOPGiM9VZLtKp37urr+dJoZeOUWwTtStp1nSzWVsQuoLrfVSIPCV2stdi1DX2NZF9TyeslfW/kgs70N4kuQmm7kpn0ozQhf+mlL8nkfVXXda5FPavYBtFqKfWih6JctPZlieaJ9HqWW0YKuFc1trBu27x1cxQ60XIjy42j0cqdbm9J26ubGcV2293F9qNrV0akA5eQp8lMO2OXFOmwXZRs/V3XuUVG0dxIn/Vx0VX0rE6+bLtEq5ed+icM3K5ic5p3S5td+NwhXTq1WltYd6aLo13Htdj0hkQZ++WdfavkUpG+7rLltf5r0UoznN349c+/u6778PmrxDhtlGilnrVsLHoouotWwoHEmjQoyG8Lp9PJRg1l0TgiR/XtjhaY3tBoZSu3N5pEGZsCpcLpaGU7I+fqbzuajdJAZlvRbXndpTe1rhK6PsiGlpcNfc9nx0K0mr4YODotQLSa9uHomgJLo5VbAeWjdEgXTfmoS6d2162Ssl8Wcf26YelbK61cIpFkHfu9nrxe0mK6Yf9wSnfaE+1Om5/cfnuIaJXi1LLnnmhlH/l3Riv5gm/+3wxptLLOelNLDNI3avaWnIhWckvabxI1GOnbaF0HNHJN37lag64S2hndsEPQbbdo6OlSIF099MSnbCy6ip7Sw1dulGj1yrNfeuy6Cs9p2C3H7tdWt+qlK6ZbJaXFdHHUVXhOl7SMi1Zd1+mfPek3g1pYNyRgaSCbiFYTXyPy1ko9691Y9FBML1q9j9JD9q5x17YtbLftn2dNk2q7tpjudHecvSVtr9yN7A65zDQB5ZqzXdKB6yqhnUmbsye6OvV0KWPR7FnP2p7AeVaXaFcFiFZKwcbDBXQVntPS6K/I+oelulbaX21ttfarBN2fLo66CmuZ0Q33dV76DwblWzn7375K60m//pOwlaYxKZnu561VqlrjnkUPRXfRSjjQN6/uj6X0BpGXW/L35kJk/67c1inb+qXYhOfo/as7bRCR21Pfh7lAk7auw5EXVPp2auL2lDq1pO22nqVdssuFE7MnTkcriX32BZs9t/z2oquofPdevEWi1YtfAEWHr6vwnFbdMien2MAkS6Q8S2SdddVqAV2D7JouhXUVdue6j/YbPf1DcldmdL/9Y6nR4CUpSorZAGf3f/j8VQ/x1sqx1/hRL8g5nZeLVr8Us2lJTpebwoUSOaQRx0Yu997I/jcapvszev9qfJHkId24XC72lpyIVvZXI2HRPwizHdPh2wgo1aaH9KbWvtlopf8SUE/UYOfWHD1dWdxc6P6nbCy6ip7Sw1dulGj1yrNfeuyjS3PpTjysPfvfXHhYIxErHn2/GLGjYfrEQ3HOVKS/CMme0TdVcypsrAxXUeQJJVpFnp3W+tZwtJr466jWZjEZD9EqIbmxg4fiDaDvh+WllL5S0pdYds+celotw1UUeWaJVpFnp7W+tRet9ItC+1+6am3abo2HaHVLyB/noehFrny2X2jK93f6LxCvnPFCu7mKIk820Sry7NA3BBBAAAEEEKhMgGhV2YTRXQQQQAABBBCILEC0ijw79A0BBBBAAAEEKhMgWlU2YXQXAQQQQAABBCILEK0izw59QwABBBBAAIHKBIhWlU0Y3UUAAQQQQACByAJEq8izQ98QQAABBBBAoDIBolVlE0Z3EUAAAQQQQCCyANEq8uzQNwQQQAABBBCoTIBoVdmE0V0EEEAAAQQQiCxAtIo8O/QNAQQQQAABBCoTIFpVNmF0FwEEEEAAAQQiCxCtIs8OfUMAAQQQQACBygSIVpVNGN1FAAEEEEAAgcgCRKvIs0PfEEAAAQQQQKAyAaJVZRNGdxFAAAEEEEAgsgDRKvLs0DcEEEAAAQQQqEyAaFXZhNFdBBBAAAEEEIgsQLSKPDut9e18Pl8ul9ZG9fLj2e12fd+/PMMCgL7vd7vdghMo+pICm82m7/vtdvuSo6970ESruuevrt4Treqar5m9JVrNhNJiRCulYGNCgGg1gRP8ENEq+AQ11T2iVVPT+WMwRKsfEnP/l2g1V+q1yxGt6p1/olW9c1dNz4crPzKA7Xbbm5/D4WAHZo5827SHjsejPbrZbPSoPOz1qP3yheaURbm6rsvAdKdotXYibBMvvu0uPOXSC56LVo6fm4kAAAHkSURBVEwURC4YhZINexW5K9BeeFVguktCB+46rwJ2HbMObAcUIFoFnJRmu8RbqyanVp4ETQ7tQYPirdWDYBurlrdW9U4o0areuauv50Sr+uZsRo+JVjOQfipCtPqJgw9XBIhWV2Aq2E20qmCSmuki0aqZqbQDIVpZjTnbRKs5SpQhWtV7DRCt6p07eo4AAggggAAC4QSIVuGmhA4hgAACCCCAQL0CRKt6546eI4AAAggggEA4AaJVuCmhQwgggAACCCBQrwDRqt65o+cIIIAAAgggEE6AaBVuSugQAggggAACCNQrQLSqd+7oOQIIIIAAAgiEEyBahZsSOoQAAggggAAC9QoQreqdO3qOAAIIIIAAAuEEiFbhpoQOIYAAAggggEC9AkSreueOniOAAAIIIIBAOAGiVbgpoUMIIIAAAgggUK8A0areuaPnCCCAAAIIIBBOgGgVbkroEAIIIIAAAgjUK0C0qnfu6DkCCCCAAAIIhBMgWoWbEjqEAAIIIIAAAvUKEK3qnTt6jgACCCCAAALhBIhW4aaEDiGAAAIIIIBAvQJEq3rnjp4jgAACCCCAQDgBolW4KaFDCCCAAAIIIFCvANGq3rmj5wgggAACCCAQToBoFW5K6BACCCCAAAII1CvwXwJMqQeV/nO9AAAAAElFTkSuQmCC;" vertex="1" parent="1">
          <mxGeometry x="68" y="530" width="714.8" height="223.93" as="geometry" />
        </mxCell>
      </root>
    </mxGraphModel>
  </diagram>
</mxfile>
